<svg xmlns="http://www.w3.org/2000/svg" viewBox="0 0 200 200" fill="none" shape-rendering="auto"><desc>"Fun Emoji Set" by "Davis Uche", licensed under "CC BY 4.0". / Remix of the original. - Created with dicebear.com</desc><metadata xmlns:dc="http://purl.org/dc/elements/1.1/" xmlns:cc="http://creativecommons.org/ns#" xmlns:rdf="http://www.w3.org/1999/02/22-rdf-syntax-ns#"><rdf:RDF><cc:Work><dc:title>Fun Emoji Set</dc:title><dc:creator><cc:Agent rdf:about="https://www.instagram.com/davedirect3/"><dc:title>Davis Uche</dc:title></cc:Agent></dc:creator><dc:source>https://www.figma.com/community/file/968125295144990435</dc:source><cc:license rdf:resource="https://creativecommons.org/licenses/by/4.0/" /></cc:Work></rdf:RDF></metadata><mask id="viewboxMask"><rect width="200" height="200" rx="0" ry="0" x="0" y="0" fill="#fff" /></mask><g mask="url(#viewboxMask)"><rect fill="#fcbc34" width="200" height="200" x="0" y="0" /><g transform="matrix(1.5625 0 0 1.5625 37.5 110.94)"><path fill-rule="evenodd" clip-rule="evenodd" d="M4 4c10.24 32.68 61.73 31.31 72 0A167.66 167.66 0 0 1 4 4Z" fill="#2B1607"/><path d="M39.68 29h-.64c-17.41-.24-31.54-9.95-36-24.74a1.02 1.02 0 0 1 .2-.95.98.98 0 0 1 .91-.28 165.35 165.35 0 0 0 71.72 0 .91.91 0 0 1 .9.3 1.04 1.04 0 0 1 .19.97C71.93 19.37 57.36 29 39.68 29ZM5.33 5.3c4.73 13.13 17.76 21.54 33.7 21.77C55.6 27.3 69.29 18.8 74.56 5.3a167.24 167.24 0 0 1-69.22 0Z" fill="#000"/><g style="mix-blend-mode:soft-light" opacity=".4"><path d="M22.02 35.23c5.08 5.6 28.25 5.96 33.85 0a79.58 79.58 0 0 1-33.85 0Z" fill="#422715"/><path d="M22.02 35.23c5.08 5.6 28.25 5.96 33.85 0a79.58 79.58 0 0 1-33.85 0Z" stroke="#000" stroke-width="1.58" stroke-miterlimit="10"/></g><path fill-rule="evenodd" clip-rule="evenodd" d="M40.83 45H38.1c-2.67 0-5.24-1.06-7.13-2.94a10 10 0 0 1-2.96-7.1V19.54c0-1.9 2.8-3.94 4.88-3.46a29.03 29.03 0 0 0 13.26 0C48 15.7 51 17.62 51 19.53v15.44a9.98 9.98 0 0 1-6.28 9.29c-1.23.5-2.55.75-3.89.74Z" fill="url(#mouthTongueOut-a)"/><path fill-rule="evenodd" clip-rule="evenodd" d="M38.27 17c.95 3.75.33 13 1.13 13 .8 0 .53-9.01 1.37-13h-2.5Z" fill="#A00707"/><defs><linearGradient id="mouthTongueOut-a" x1="39.46" y1="45" x2="39.46" y2="16" gradientUnits="userSpaceOnUse"><stop stop-color="#EF0A0A"/><stop offset=".5" stop-color="#ED0A0A"/><stop offset=".67" stop-color="#E60A0A"/><stop offset=".8" stop-color="#DB0A0A"/><stop offset=".9" stop-color="#CA0A0A"/><stop offset=".99" stop-color="#B40A0A"/><stop offset="1" stop-color="#B10A0A"/></linearGradient></defs></g><g transform="matrix(1.5625 0 0 1.5625 31.25 59.38)"><path d="M87 13.04C87 5.84 81.18 0 74 0S61 5.84 61 13.04v3.92C61 24.16 66.82 30 74 30s13-5.84 13-13.04v-3.92Z" fill="#000"/><path d="M69.79 9.53a2.29 2.29 0 1 0 0-4.57 2.29 2.29 0 0 0 0 4.57Z" fill="#fff"/><path opacity=".1" d="M74.02 18.35a5.32 5.32 0 1 0 0-10.65 5.32 5.32 0 0 0 0 10.65Z" fill="#fff"/><path d="M26 13.04C26 5.84 20.18 0 13 0S0 5.84 0 13.04v3.92C0 24.16 5.82 30 13 30s13-5.84 13-13.04v-3.92Z" fill="#000"/><path d="M8.79 9.53a2.29 2.29 0 1 0 0-4.57 2.29 2.29 0 0 0 0 4.57Z" fill="#fff"/><path opacity=".1" d="M13.02 18.35a5.32 5.32 0 1 0 0-10.65 5.32 5.32 0 0 0 0 10.65Z" fill="#fff"/></g></g></svg>